<?xml version="1.0" encoding="utf-8"?>
<!-- Generator: Adobe Illustrator 21.0.0, SVG Export Plug-In . SVG Version: 6.00 Build 0)  -->
<svg version="1.1" id="Layer_1" xmlns="http://www.w3.org/2000/svg" xmlns:xlink="http://www.w3.org/1999/xlink" x="0px" y="0px"
	 width="300px" height="68.5px" viewBox="0 0 300 68.5" style="enable-background:new 0 0 300 68.5;" xml:space="preserve">
<style type="text/css">
	.Drop_x0020_Shadow{fill:none;}
	.Outer_x0020_Glow_x0020_5_x0020_pt{fill:none;}
	.Blue_x0020_Neon{fill:none;stroke:#8AACDA;stroke-width:7;stroke-linecap:round;stroke-linejoin:round;}
	.Chrome_x0020_Highlight{fill:url(#SVGID_1_);stroke:#FFFFFF;stroke-width:0.3629;stroke-miterlimit:1;}
	.Jive_GS{fill:#FFDD00;}
	.Alyssa_GS{fill:#A6D0E4;}
	.st0{fill:#FFFFFF;}
	.st1{fill:none;stroke:#FFFFFF;stroke-width:21;stroke-linecap:round;stroke-linejoin:round;stroke-miterlimit:10;}
</style>
<linearGradient id="SVGID_1_" gradientUnits="userSpaceOnUse" x1="-2102.6848" y1="-114.2602" x2="-2102.6848" y2="-115.2602">
	<stop  offset="0" style="stop-color:#656565"/>
	<stop  offset="0.618" style="stop-color:#1B1B1B"/>
	<stop  offset="0.6292" style="stop-color:#545454"/>
	<stop  offset="0.9831" style="stop-color:#3E3E3E"/>
</linearGradient>
<g>
	<g>
		<circle class="st0" cx="14.2" cy="61.5" r="7"/>
	</g>
	<g>
		<circle class="st0" cx="36.1" cy="61.5" r="7"/>
	</g>
	<g>
		<path class="st0" d="M35.9,51.2c-0.6,0-1.3-0.1-1.9-0.4c-2.5-1-3.7-3.9-2.6-6.4l9.3-22.4c1-2.5,3.9-3.7,6.4-2.6
			c2.5,1,3.7,3.9,2.6,6.4l-9.3,22.4C39.6,50.1,37.8,51.2,35.9,51.2z"/>
	</g>
	<g>
		<path class="st1" d="M25.2,24"/>
	</g>
	<g>
		<path class="st0" d="M35.9,51.2c-1.8,0-3.6-1-4.4-2.8L20.7,26.1c-1.2-2.4-0.1-5.4,2.3-6.5c2.4-1.2,5.4-0.1,6.5,2.3l10.7,22.4
			c1.2,2.4,0.1,5.4-2.3,6.5C37.3,51.1,36.6,51.2,35.9,51.2z"/>
	</g>
	<g>
		<path class="st1" d="M14.2,46.6"/>
	</g>
	<g>
		<path class="st0" d="M14.2,51.5c-0.7,0-1.4-0.2-2.1-0.5c-2.4-1.2-3.4-4.1-2.3-6.5l10.9-22.6c1.2-2.4,4.1-3.4,6.5-2.3
			c2.4,1.2,3.4,4.1,2.3,6.5L18.6,48.7C17.8,50.4,16,51.5,14.2,51.5z"/>
	</g>
	<g>
		<path class="st1" d="M4.9,24.2"/>
	</g>
	<g>
		<path class="st0" d="M14.2,51.5c-1.9,0-3.7-1.1-4.5-3L0.4,26.1c-1-2.5,0.1-5.4,2.6-6.4c2.5-1,5.4,0.1,6.4,2.6l9.3,22.4
			c1,2.5-0.1,5.4-2.6,6.4C15.5,51.3,14.8,51.5,14.2,51.5z"/>
	</g>
	<g>
		<path class="st0" d="M50.2,16.7c-0.6,0-1.3-0.1-1.9-0.4c-2.5-1-3.7-3.9-2.6-6.4L48.6,3c0.8-1.8,2.5-3,4.5-3h10.5
			c2.7,0,4.9,2.2,4.9,4.9s-2.2,4.9-4.9,4.9h-7.2l-1.6,3.9C54,15.6,52.2,16.7,50.2,16.7z"/>
	</g>
	<g>
		<path class="st0" d="M87.6,29.8h5.8l-7.3,21.7h-5.8l-4.1-14.8L72,51.5h-5.8l-7.3-21.7h6.1l4.3,15.8l4.3-15.8H79l4.3,15.8
			L87.6,29.8z"/>
		<path class="st0" d="M107.9,35.6c1.4,0.7,2.5,1.7,3.2,3c0.8,1.3,1.1,2.8,1.1,4.5c0,1.7-0.4,3.2-1.1,4.5c-0.8,1.3-1.8,2.3-3.2,3
			c-1.4,0.7-3,1.1-4.8,1.1c-1.8,0-3.4-0.4-4.8-1.1c-1.4-0.7-2.5-1.7-3.2-3c-0.8-1.3-1.1-2.8-1.1-4.5c0-1.7,0.4-3.2,1.1-4.5
			c0.8-1.3,1.8-2.3,3.2-3c1.4-0.7,3-1.1,4.8-1.1C105,34.6,106.6,34.9,107.9,35.6z M100.5,40.2c-0.7,0.8-1,1.8-1,3c0,1.3,0.3,2.3,1,3
			c0.7,0.8,1.5,1.1,2.6,1.1c1.1,0,2-0.4,2.6-1.1c0.7-0.8,1-1.8,1-3c0-1.2-0.3-2.2-1-3c-0.7-0.8-1.5-1.1-2.6-1.1
			C102.1,39,101.2,39.4,100.5,40.2z"/>
		<path class="st0" d="M129.5,35.6c1.4,0.7,2.5,1.7,3.2,3c0.8,1.3,1.1,2.8,1.1,4.5c0,1.7-0.4,3.2-1.1,4.5c-0.8,1.3-1.8,2.3-3.2,3
			c-1.4,0.7-3,1.1-4.8,1.1c-1.8,0-3.4-0.4-4.8-1.1c-1.4-0.7-2.5-1.7-3.2-3c-0.8-1.3-1.1-2.8-1.1-4.5c0-1.7,0.4-3.2,1.1-4.5
			c0.8-1.3,1.8-2.3,3.2-3c1.4-0.7,3-1.1,4.8-1.1C126.6,34.6,128.2,34.9,129.5,35.6z M122.1,40.2c-0.7,0.8-1,1.8-1,3
			c0,1.3,0.3,2.3,1,3c0.7,0.8,1.5,1.1,2.6,1.1c1.1,0,2-0.4,2.6-1.1c0.7-0.8,1-1.8,1-3c0-1.2-0.3-2.2-1-3c-0.7-0.8-1.5-1.1-2.6-1.1
			C123.7,39,122.8,39.4,122.1,40.2z"/>
		<path class="st0" d="M151.8,35c-1-0.5-1.9-0.8-2.9-0.8c-1.1,0-2.1,0.3-3,0.8c-0.9,0.5-1.6,1.3-2.1,2.3c-0.5,1-0.8,2-0.8,3.2
			s0.3,2.2,0.8,3.2c0.5,1,1.2,1.7,2.1,2.3s1.9,0.8,3,0.8c0.9,0,1.8-0.2,2.8-0.7c1-0.5,1.8-1.1,2.6-1.9l3.3,3.6
			c-1.2,1.2-2.6,2.2-4.2,3c-1.6,0.7-3.2,1.1-4.8,1.1c-2.1,0-4.1-0.5-5.8-1.5c-1.7-1-3.1-2.3-4.1-4.1c-1-1.7-1.5-3.6-1.5-5.8
			c0-2.1,0.5-4,1.5-5.7c1-1.7,2.4-3,4.2-4c1.8-1,3.7-1.5,5.9-1.5c1.6,0,3.2,0.3,4.8,1c1.6,0.7,2.9,1.6,4,2.7l-3.3,4
			C153.6,36.3,152.7,35.6,151.8,35z"/>
		<path class="st0" d="M177.5,36.3c1.1,1.2,1.7,2.7,1.7,4.7v10.6h-5.5v-9c0-0.9-0.3-1.7-0.8-2.2c-0.5-0.5-1.2-0.8-2.1-0.8
			c-1,0-1.8,0.4-2.4,1.1c-0.6,0.7-0.9,1.6-0.9,2.7v8.3H162v-23h5.5v8.9c0.6-1,1.4-1.7,2.3-2.2c0.9-0.5,2-0.7,3.2-0.7
			C174.9,34.5,176.4,35.1,177.5,36.3z"/>
		<path class="st0" d="M198.4,37c1.5,1.6,2.2,3.8,2.2,6.6c0,0.4,0,0.8,0,1h-11.6c0.3,0.9,0.7,1.7,1.4,2.2c0.7,0.5,1.5,0.8,2.4,0.8
			c0.7,0,1.4-0.1,2.1-0.4c0.7-0.3,1.3-0.7,1.8-1.3l2.9,2.9c-0.9,1-1.9,1.7-3.1,2.2c-1.2,0.5-2.6,0.8-4.2,0.8c-1.8,0-3.4-0.4-4.7-1.1
			s-2.4-1.7-3.1-3c-0.7-1.3-1.1-2.8-1.1-4.5c0-1.7,0.4-3.2,1.1-4.5c0.7-1.3,1.7-2.3,3.1-3c1.3-0.7,2.8-1.1,4.6-1.1
			C194.8,34.6,196.9,35.4,198.4,37z M195.2,41.7c0-1-0.3-1.7-0.9-2.3c-0.6-0.6-1.3-0.9-2.2-0.9c-0.9,0-1.6,0.3-2.2,0.9
			c-0.6,0.6-1,1.4-1.2,2.4H195.2z"/>
		<path class="st0" d="M212.8,39.1c-1,0-1.8,0.4-2.4,1.1c-0.6,0.8-0.9,1.7-0.9,2.9c0,1.2,0.3,2.2,0.9,2.9c0.6,0.7,1.4,1.1,2.4,1.1
			c1.5,0,2.6-0.6,3.3-1.9l4.1,2.3c-0.7,1.3-1.7,2.3-3,3c-1.3,0.7-2.9,1.1-4.6,1.1c-1.7,0-3.2-0.4-4.5-1.1c-1.3-0.7-2.3-1.7-3-3
			c-0.7-1.3-1.1-2.8-1.1-4.5c0-1.7,0.4-3.2,1.1-4.5c0.7-1.3,1.7-2.3,3-3s2.8-1.1,4.5-1.1c1.7,0,3.2,0.3,4.5,1c1.3,0.7,2.3,1.7,3,2.9
			l-4,2.3C215.3,39.7,214.2,39.1,212.8,39.1z"/>
		<path class="st0" d="M235.4,51.5l-3.5-6.3l-1.7,1.8v4.6h-5.5v-23h5.5v11.9l5.4-5.7h6.3l-6.1,6.5l6.3,10.3H235.4z"/>
		<path class="st0" d="M257.7,35.6c1.4,0.7,2.5,1.7,3.2,3c0.8,1.3,1.1,2.8,1.1,4.5c0,1.7-0.4,3.2-1.1,4.5c-0.8,1.3-1.8,2.3-3.2,3
			c-1.4,0.7-3,1.1-4.8,1.1c-1.8,0-3.4-0.4-4.8-1.1c-1.4-0.7-2.5-1.7-3.2-3c-0.8-1.3-1.1-2.8-1.1-4.5c0-1.7,0.4-3.2,1.1-4.5
			c0.8-1.3,1.8-2.3,3.2-3c1.4-0.7,3-1.1,4.8-1.1C254.7,34.6,256.3,34.9,257.7,35.6z M250.3,40.2c-0.7,0.8-1,1.8-1,3
			c0,1.3,0.3,2.3,1,3c0.7,0.8,1.5,1.1,2.6,1.1c1.1,0,2-0.4,2.6-1.1c0.7-0.8,1-1.8,1-3c0-1.2-0.3-2.2-1-3c-0.7-0.8-1.5-1.1-2.6-1.1
			C251.8,39,250.9,39.4,250.3,40.2z"/>
		<path class="st0" d="M283,34.8v16.7h-5.5v-2.7c-1.1,1.9-2.9,2.9-5.4,3c-1.8,0-3.3-0.6-4.3-1.7c-1.1-1.2-1.6-2.7-1.6-4.7V34.8h5.5
			v9c0,0.9,0.2,1.7,0.7,2.2s1.1,0.8,2,0.8c1,0,1.7-0.4,2.3-1.1c0.6-0.7,0.8-1.6,0.8-2.7v-8.3H283z"/>
		<path class="st0" d="M300,50.6c-0.6,0.4-1.3,0.6-2.1,0.8c-0.8,0.2-1.6,0.3-2.4,0.3c-1.7,0-3-0.5-4-1.4c-1-0.9-1.5-2.3-1.5-3.9
			v-7.2h-2.3v-3.7h2.3v-4.6h5.5v4.6h4.3v3.7h-4.3v6.3c0,1.2,0.5,1.8,1.5,1.8c0.6,0,1.3-0.2,2.1-0.6L300,50.6z"/>
	</g>
</g>
</svg>
