<?xml version="1.0" encoding="utf-8"?>
<!-- Generator: Adobe Illustrator 21.0.0, SVG Export Plug-In . SVG Version: 6.00 Build 0)  -->
<svg version="1.1" id="Layer_1" xmlns="http://www.w3.org/2000/svg" xmlns:xlink="http://www.w3.org/1999/xlink" x="0px" y="0px"
	 viewBox="0 0 11.3 11.7" style="enable-background:new 0 0 11.3 11.7;" xml:space="preserve">
<style type="text/css">
	.st0{fill:#FFFFFF;}
</style>
<g>
	<path class="st0" d="M5.7,11.5c-1.4,0-2.7-0.4-3.7-1.3c-1.2-1-1.9-2.3-2-3.8C-0.1,4.5,0.5,3,1.8,1.7c0.9-0.9,2.1-1.4,3.3-1.5
		c1.5-0.1,2.9,0.3,4.1,1.3c1.2,1,1.9,2.3,2,3.8c0.2,1.6-0.3,3.1-1.4,4.3C8.8,10.8,7.4,11.4,5.7,11.5z M9.2,8.6
		c1.2-1.4,1.4-4-0.3-5.8C7.1,0.9,4.4,1,2.9,2.3C5,4.4,7.1,6.5,9.2,8.6z M2.1,3.1C0.7,4.9,0.8,7.8,3,9.4c1.8,1.4,4.1,1,5.4,0
		C6.3,7.3,4.2,5.2,2.1,3.1z"/>
</g>
</svg>
