<?xml version="1.0" encoding="utf-8"?>
<!-- Generator: Adobe Illustrator 21.0.0, SVG Export Plug-In . SVG Version: 6.00 Build 0)  -->
<svg version="1.1" id="Layer_1" xmlns="http://www.w3.org/2000/svg" xmlns:xlink="http://www.w3.org/1999/xlink" x="0px" y="0px"
	 width="74px" height="95.3px" viewBox="0 0 74 95.3" style="enable-background:new 0 0 74 95.3;" xml:space="preserve">
<style type="text/css">
	.st0{fill:#FF6600;}
</style>
<g>
	<path class="st0" d="M73.7,9L39.9,0l0,0l0,0v95.3l0,0l0,0l0,0l4.8-1c0,0,1-0.3,2.8-0.8h0.3l0,0V47.7l26.1-18.6l0,0V9L73.7,9z
		 M66,15.3v9.8L47.7,37.9V10.5L66,15.3z"/>
	<path class="st0" d="M73.7,36.1L73.7,36.1L66,41.6l0,0v13.8c0,10.5-3.8,18.8-11,24.6c-0.3,0.3-0.8,0.8-1,1h-0.3l0,0v9.3l0,0l0,0
		l0,0l0.8-0.3c1.8-1,3.8-2.3,5-3.3C66.2,81.8,74,72,74,55.4L73.7,36.1L73.7,36.1z"/>
	<path class="st0" d="M33.9,0L0,9l0,0v19.8l0,0l26.1,18.8v36.9c-2.3-1-4.8-2.3-6.5-4C11.8,74.5,8,66,8,55.4V41.1l0,0l-7.8-5.5
		c0,0,0,0-0.3,0l0,0v19.6c0,16.6,7.8,26.1,14.5,31.4c7,5.8,14.5,7.5,14.5,7.5l4.8,1l0,0l0,0l0,0V43.6l0,0L7.8,25.1v-9.8l18.3-5v15.6
		l0,0l7.8,5.5c0,0,0,0,0.3,0l0,0L33.9,0C34.1,0,34.1,0,33.9,0C34.1,0,34.1,0,33.9,0z"/>
</g>
</svg>
